<svg width="128" height="128" viewBox="0 0 128 128" fill="none" xmlns="http://www.w3.org/2000/svg">
<path d="M122.067 53.1662C124.397 52.0964 124.398 48.7857 122.069 47.7143L65.2405 21.5767C64.4447 21.2107 63.5286 21.2107 62.7329 21.5769L35.0145 34.331L29.3883 36.9198L5.94473 47.707C3.61318 48.7798 3.6178 52.0948 5.95233 53.1611L8.91264 54.5133C9.98091 55.0012 10.6662 56.0676 10.6662 57.2421V61.1786C10.6662 62.1272 9.95021 62.8636 9.14068 63.3581C7.98819 64.062 7.98362 65.1668 7.98362 66.4222C7.98362 66.9652 8.08331 67.5595 8.27726 68.0989C8.54927 68.8553 8.70893 69.717 8.36814 70.4451L6.60468 74.2124C5.98391 75.5385 6.9518 77.0603 8.41606 77.0603H15.1917C16.6528 77.0603 17.6207 75.5445 17.0061 74.2189L15.2473 70.4258C14.9129 69.7046 15.0728 68.867 15.415 68.1495C15.6543 67.6477 15.8068 67.0954 15.8068 66.553C15.8068 64.8925 13.3408 63.3575 13.3408 62.8049V56.5662L26.3395 62.3942C26.5152 62.473 26.7137 62.3445 26.7137 62.1519C26.7137 62.075 26.7463 62.0023 26.8047 61.9522C34.8437 55.0327 48.8929 50.6452 64.1525 50.6452C79.4178 50.6452 93.4727 55.033 101.512 61.9527C101.57 62.0026 101.602 62.0746 101.602 62.151C101.602 62.3431 101.801 62.4707 101.975 62.3905L122.067 53.1662Z" fill="white"/>
<path fill-rule="evenodd" clip-rule="evenodd" d="M30.5037 66.617C29.7869 67.1592 29.3883 68.0164 29.3883 68.9152V75.8335C29.3883 76.3853 28.9412 76.8329 28.3894 76.8335L25.5165 76.8366C24.4919 76.8366 23.5093 77.2436 22.7848 77.9681C22.0603 78.6926 21.6533 79.6752 21.6533 80.6998V92.2894C21.6533 93.314 22.0603 94.2966 22.7848 95.0211C23.5093 95.7456 24.4919 96.1526 25.5165 96.1526H28.3797C28.932 96.1526 29.3797 96.6003 29.3797 97.1526V100.016C29.3797 102.065 30.1938 104.03 31.6427 105.479C33.0917 106.928 35.057 107.742 37.1061 107.742H46.7642H81.533H91.191C93.2402 107.742 95.2054 106.928 96.6544 105.479C98.1034 104.03 98.9174 102.065 98.9174 100.016V97.1526C98.9174 96.6003 99.3651 96.1526 99.9174 96.1526H102.781C103.805 96.1526 104.788 95.7456 105.512 95.0211C106.237 94.2966 106.644 93.314 106.644 92.2894V80.6998C106.644 79.6752 106.237 78.6926 105.512 77.9681C104.788 77.2436 103.805 76.8366 102.781 76.8366L99.9263 76.8335C99.3744 76.8329 98.9273 76.3853 98.9273 75.8335V68.9152C98.9273 68.0164 98.529 67.1595 97.8122 66.6172C93.9138 63.6681 89.1187 61.2489 83.6352 59.5408C82.3901 59.1529 81.0527 59.6731 80.3447 60.7683L76.1812 67.2096C75.26 68.6347 73.679 69.4953 71.9821 69.4953H56.3144C54.6179 69.4953 53.0371 68.635 52.1158 67.2104L47.9529 60.7728C47.2447 59.6776 45.9072 59.1576 44.662 59.5459C41.1444 60.6431 37.9102 62.0331 35.0145 63.668C33.4029 64.5779 31.8962 65.5636 30.5037 66.617ZM39.9349 79.8021C41.7461 77.9909 44.2027 76.9734 46.7642 76.9734C49.3256 76.9734 51.7822 77.9909 53.5934 79.8021C55.4046 81.6134 56.4222 84.0699 56.4222 86.6314C56.4222 89.1928 55.4046 91.6494 53.5934 93.4606C51.7822 95.2718 49.3256 96.2894 46.7642 96.2894C44.2027 96.2894 41.7461 95.2718 39.9349 93.4606C38.1237 91.6494 37.1061 89.1928 37.1061 86.6314C37.1061 84.0699 38.1237 81.6134 39.9349 79.8021ZM74.7037 79.8021C76.515 77.9909 78.9715 76.9734 81.533 76.9734C84.0944 76.9734 86.551 77.9909 88.3622 79.8021C90.1734 81.6134 91.191 84.0699 91.191 86.6314C91.191 89.1928 90.1734 91.6494 88.3622 93.4606C86.551 95.2718 84.0944 96.2894 81.533 96.2894C78.9715 96.2894 76.515 95.2718 74.7037 93.4606C72.8925 91.6494 71.875 89.1928 71.875 86.6314C71.875 84.0699 72.8925 81.6134 74.7037 79.8021Z" fill="white"/>
</svg>
